<svg xmlns="http://www.w3.org/2000/svg" shape-rendering="geometricPrecision" text-rendering="geometricPrecision" image-rendering="optimizeQuality" fill-rule="evenodd" clip-rule="evenodd" viewBox="0 0 467 512.503"><path fill="#7E4A27" fill-rule="nonzero" d="M216.708 229.969c54.034.473 113.075-8.922 184.941-25.943 3.109-.713 6.428.748 7.915 3.722 7.042 14.018 12.826 43.11 17.225 76.141 5.85 43.93 9.392 95.326 10.16 126.821.19 7.855-.213 13.095-.509 16.932-.233 3.06-.374 4.911-.239 5.23.17.407 3.043 1.723 10.245 5.016l.791.361c9.839 4.501 15.784 10.446 18.39 19.027 2.371 7.8 1.603 17.313-1.769 29.64a7.043 7.043 0 01-6.926 5.413l-58.234-.784c-43.293 8.785-81.272 15.567-118.282 18.814-37.505 3.292-74.243 3.013-114.772-2.384-19.848-2.639-39.262-5.859-57.833-8.932-14.851-2.456-29.174-4.829-42.591-6.727-8.282-1.168-17.674-.561-26.866.036-9.684.627-19.178 1.244-27.93-.062a7.089 7.089 0 01-5.571-4.52c-5.837-15.626-6.109-26.683-2.412-34.791 3.968-8.696 11.844-13.342 22.063-16.079 5.607-1.501 5.578-1.727 5.259-4.245-.364-2.879-.847-6.644-1.018-11.71-1.224-36.383.732-81.462 5.105-122.736 4.13-39 10.443-74.811 18.298-97.062l.164-.414c1.52-3.578 5.66-5.242 9.238-3.723 52.285 22.238 101.385 32.49 155.158 32.959z"/><path fill="#B58353" d="M403.279 210.893c-144.676 34.266-238.163 37.825-344.485-7.402-15.85 44.899-25.37 147.365-23.016 217.236.638 18.982 5.952 18.861-9.455 22.986-16.553 4.435-25.112 14.199-14.879 41.6 16.297 2.433 36.965-2.484 54.741.027 30.261 4.277 65.175 10.975 100.37 15.66 79.835 10.632 145.011 1.073 231.494-16.498l58.965.795c6.146-22.31 3.109-33.418-12.698-40.651-21.32-9.747-13.719-5.926-14.4-33.774-1.33-54.458-11-168.845-26.637-199.979z"/><path fill="#7E4A27" fill-rule="nonzero" d="M125.63 67.183l208.771 7.793.798.072 4.501.677c11.368 1.746 24.07 3.706 35.553 5.918l4.224.831c11.842 2.305 21.769 4.304 30.583 13.125 7.123 7.14 13.206 19.453 17.605 32.555 5.036 14.993 8.004 31.406 7.817 42.128-.187 10.685-2.124 19.986-6.362 27.441-4.534 7.967-11.487 13.689-21.427 16.591-33.353 8.164-68.544 18.351-102.259 23.869a424.07 424.07 0 01-42.892 4.793c-25.639 1.543-52.42.725-78.954-2.213-26.893-2.98-53.595-8.151-78.649-15.251l-1.786-.506c-19.809-5.591-68.009-19.201-76.843-39.232-4.79-10.867-3.447-24.969.833-39.299 5.755-19.253 16.88-39.341 24.848-51.516 4.172-6.375 9.126-12.107 15.442-16.444l.259-.167c6.366-4.304 13.942-7.104 23.219-7.616 5.342-.7 11.086-1.343 16.782-1.914 5.4-.545 11.464-1.103 17.051-1.609l.886-.026z"/><path fill="#AA7647" d="M125.38 74.234l208.772 7.794c12.471 1.927 27.139 4.116 39.774 6.556 12.57 2.54 22.911 3.765 31.128 11.991 13.705 13.736 23.705 51.087 23.376 69.595-.335 19.054-6.634 32.674-22.7 37.368l-59.793 14.628a413.895 413.895 0 01-83.809 13.758c-50.801 3.063-106.251-3.318-155.282-17.214-17.569-4.977-66.322-18.23-74.066-35.786-9.789-22.195 12.038-64.096 25.129-84.095 7.446-11.375 17.38-20.222 33.583-21.059 10.525-1.392 23.232-2.571 33.888-3.536z"/><path fill="#7E4A27" fill-rule="nonzero" d="M58.346 91.814c-.226-3.88 2.738-7.219 6.618-7.446 3.881-.226 7.219 2.738 7.446 6.618.101 1.645 1.247 3.46 3.404 5.424 2.997 2.731 7.596 5.42 13.745 8.042 15.721 6.714 37.404 12.068 60.088 16.079 29.056 5.141 59.507 8.056 81.376 8.848 18.788.676 37.746.219 57.863-1.419 20.1-1.635 41.255-4.458 64.457-8.502 14.835-2.587 18.102-7.058 21.804-12.13 4.17-5.715 8.739-11.979 21.67-17.806a7.051 7.051 0 019.32 3.529c1.599 3.545.016 7.721-3.529 9.32-9.609 4.33-13.006 8.985-16.102 13.23-5.509 7.543-10.357 14.188-30.793 17.75-23.681 4.126-45.252 7.009-65.724 8.673-20.452 1.667-39.932 2.124-59.464 1.418-22.547-.814-53.753-3.788-83.308-9.018-23.596-4.172-46.339-9.822-63.173-17.011-7.633-3.257-13.558-6.789-17.718-10.584-4.956-4.517-7.638-9.527-7.98-15.015z"/><path fill="#7E4A27" fill-rule="nonzero" d="M349.309 134.999c-44.049 7.195-88.12 9.06-132.264 5.987-44.14-3.075-88.388-11.085-132.781-23.636-3.746-1.047-5.929-4.937-4.882-8.683a6.989 6.989 0 011.862-3.141c20.586-22.878 43.3-41.6 66.883-61.037l11.027-9.162C181.01 17.038 203.839-2.067 229.914.181c19.966 1.72 63.203 36.62 82.181 51.937l3.132 2.525a627.394 627.394 0 0136.019 31.252l2.193 2.032c7.717 7.15 15.242 14.277 17.037 26.508 2.265 15.476-4.464 18.207-14.687 19.7l-6.48.864z"/><path fill="#F8D667" d="M348.18 128.053c-86.96 14.208-174.143 7.358-262.015-17.486 21.612-24.092 45.86-43.67 70.994-64.41 22.739-18.769 46.52-41.158 72.179-38.943 18.917 1.633 65.151 39.789 81.478 52.913a629.66 629.66 0 0135.648 30.91c7.505 7.021 15.433 13.529 17.038 24.419 1.792 12.231-5.88 11.056-15.322 12.597z"/><path fill="#DFC15D" d="M294.109 110.637a3.482 3.482 0 11-3.483 3.483 3.479 3.479 0 013.483-3.483zm-85.077-68.341a3.311 3.311 0 110 6.621 3.309 3.309 0 01-3.312-3.312 3.309 3.309 0 013.312-3.309zM249.9 76.601a3.31 3.31 0 013.309 3.313 3.308 3.308 0 01-3.309 3.309 3.31 3.31 0 110-6.622zM215.726 95.92a4.81 4.81 0 014.809 4.813 4.807 4.807 0 01-4.809 4.809 4.812 4.812 0 110-9.622zm-1.753-31.212a3.308 3.308 0 013.309 3.312 3.311 3.311 0 11-6.621 0 3.308 3.308 0 013.312-3.312zM188.62 76.28a4.807 4.807 0 014.809 4.809 4.812 4.812 0 11-4.809-4.809zm-57.875 23.806a2.571 2.571 0 012.57 2.574 2.571 2.571 0 11-5.144 0 2.574 2.574 0 012.574-2.574zm20.632-3.207a4.812 4.812 0 11.003 9.623 4.812 4.812 0 01-.003-9.623zm26.118 9.559a3.311 3.311 0 013.312 3.313 3.314 3.314 0 11-3.312-3.313zm-15.8-33.313a3.737 3.737 0 11-3.736 3.736 3.734 3.734 0 013.736-3.736zm80.884-32.165a2.884 2.884 0 012.889 2.886 2.884 2.884 0 01-2.889 2.888 2.887 2.887 0 110-5.774zm6.91 67.852a2.57 2.57 0 012.574 2.57 2.573 2.573 0 01-2.574 2.574 2.57 2.57 0 01-2.57-2.574 2.568 2.568 0 012.57-2.57zm45.391-40.05a2.568 2.568 0 012.571 2.571 2.57 2.57 0 01-2.571 2.573 2.572 2.572 0 110-5.144zm-25.707 24.184a3.955 3.955 0 013.956 3.959 3.954 3.954 0 01-3.956 3.956 3.956 3.956 0 110-7.915zm20.284-4.268a4.2 4.2 0 014.202 4.203 4.198 4.198 0 01-4.202 4.202 4.202 4.202 0 010-8.405zm25.576 12.511a3.164 3.164 0 11.002 6.33 3.164 3.164 0 01-.002-6.33zm-4.648-18.781a3.499 3.499 0 013.499 3.5 3.499 3.499 0 11-6.999 0c0-1.934 1.566-3.5 3.5-3.5z"/><path fill="#98693D" d="M31.158 160.253c2.541-14.694 7.344-27.086 13.46-38.156l50.404 45.296-63.864-7.14zM427.864 179.781c1.699-13.052-.691-28.055-3.999-40.262l-59.73 32.01 63.729 8.252zM429.192 431.802c1.779-11.008 1.399-20.938-.23-30.251l-46.661 19.759 46.891 10.492zm-393.658 0c-1.779-11.008-1.398-20.938.23-30.251l46.661 19.759-46.891 10.492zM53.586 221.116l3.273-11.766c8.332 3.309 16.21 6.77 28.895 10.532l-32.168 1.234zm355.325 4.924l-3.838-11.145c-9.832 2.823-17.395 3.296-29.486 7.248l33.324 3.897z"/><path fill="#7E4A27" fill-rule="nonzero" d="M233.495 264.146c28.735 0 54.761 11.651 73.594 30.485 18.833 18.833 30.487 44.856 30.487 73.593 0 28.741-11.651 54.763-30.487 73.593-18.83 18.837-44.853 30.488-73.594 30.488-28.74 0-54.763-11.651-73.593-30.488-18.837-18.83-30.487-44.852-30.487-73.593 0-28.737 11.654-54.76 30.487-73.593 18.834-18.834 44.859-30.485 73.593-30.485z"/><path fill="#fff" d="M233.495 271.664c53.33 0 96.564 43.234 96.564 96.56 0 53.329-43.234 96.563-96.564 96.563-53.328 0-96.562-43.234-96.562-96.563 0-53.326 43.234-96.56 96.562-96.56z"/><path fill="#338032" d="M228.883 360.572l.036-.207 31.771-12.521-29.18 16.739c4.845 4.665 10.514 7.121 16.938 7.548 13.25.873 25.472-5.023 33.646-15.275 1.549-1.944 2.889-4.107 4.074-6.369 1.434-2.748 6.575-11.989 5.833-14.195-1.086-3.223-16.21-5.443-19.673-5.919-17.977-2.462-39.952.519-44.83 21.663-.236 1.031-.289 2.085-.207 3.146l-1.014.656-.959-.699a8.316 8.316 0 00.259-2.243c-.446-18.232-18.032-24.397-33.247-25.405-2.932-.193-15.758-.919-17.196 1.553-.985 1.69 1.688 10.163 2.406 12.668.591 2.062 1.33 4.071 2.279 5.932 5 9.819 14.063 16.739 25.12 18.256 5.36.735 10.442-.328 15.219-3.352l-21.197-18.709 22.887 14.921-.003.161c1.825 6.378 1.51 15.622-.253 23.343l9.159 3.113c-1.917-7.144-4.208-17.658-1.868-24.805z"/><path fill="#432A16" d="M184.387 403.965c-2.297.098-3.974 3.35-3.173 5.242h86.627c-1.883-4.957-6.901-7.174-9.234-7.311-1.127-11.585-12.464-15.736-20.832-11.28 3.141-8.703-3.521-10.545-8.277-9.244-2.382-2.932-11.463-.594-11.726 4.691-11.182-7.544-21.797-1.28-20.694 9.381-3.769-2.165-12.976-.87-12.691 8.521z"/></svg>